<svg width="576" height="343" viewBox="0 0 576 343" fill="none" xmlns="http://www.w3.org/2000/svg">
<g clip-path="url(#clip0_1501_35480)">
<g opacity="0.58" filter="url(#filter0_f_1501_35480)">
<rect x="173" y="113" width="250" height="113" fill="url(#paint0_linear_1501_35480)"/>
</g>
<path opacity="0.05" fill-rule="evenodd" clip-rule="evenodd" d="M292 74.838C295.314 74.838 302 77.4996 302 80.7829V125.875V138.875V148.063C302 154.566 307.373 155.875 314 155.875H348V153.95H310C306.686 153.95 304 151.314 304 148.063V138.875V125.875V82.7645C304 76.198 298.627 72.8748 292 72.8748H200V74.838H292Z" fill="white"/>
<path opacity="0.05" fill-rule="evenodd" clip-rule="evenodd" d="M473.574 271.981C470.378 271.981 467.787 269.342 467.787 266.087V251.875H468V200.756C468 194.194 462.627 190.875 456 190.875H418V192.815H456C459.314 192.815 466 195.475 466 198.756V243.875V251.875V264.087C466 270.597 469.182 273.875 475.574 273.875H476V271.981H473.574Z" fill="white"/>
<path opacity="0.05" fill-rule="evenodd" clip-rule="evenodd" d="M85.2524 97.831C88.4964 97.831 95.0841 100.488 95.0841 103.765L95.0841 148.875H95V169.087C95 175.597 98.3726 178.875 105 178.875L141 178.875V176.981L103 176.981C99.6863 176.981 97 174.342 97 171.087V150.875V148.875L97 105.743C97 99.1884 91.7404 95.875 85.2524 95.875H73V97.831H85.2524Z" fill="white"/>
<path opacity="0.05" d="M391 281.875H393V212.875H391V281.875Z" fill="white"/>
<path opacity="0.05" d="M185 151H187V98H185V151Z" fill="white"/>
<path opacity="0.05" d="M484.051 166.087C484.051 169.342 481.388 171.981 478.102 171.981H430V173.875H478.102C484.673 173.875 486 168.597 486 162.087V91.875H484.051V166.087Z" fill="white"/>
<path opacity="0.05" d="M283.97 288.087C283.97 291.342 286.642 295.981 289.939 295.981H383V297.875H291.939C285.345 297.875 282 292.597 282 286.087V260.875H283.97V288.087Z" fill="white"/>
<path opacity="0.05" d="M204.955 237.087C204.955 240.342 207.621 242.981 210.91 242.981H267V244.875H212.91C206.332 244.875 203 241.597 203 235.087V214.875H204.955V237.087Z" fill="white"/>
<path opacity="0.05" d="M160.096 261.875C163.383 261.875 166.048 259.189 166.048 255.875V211.875H168V251.875C168 258.502 166.67 263.875 160.096 263.875H94V261.875H127.048H160.096Z" fill="white"/>
<g filter="url(#filter1_f_1501_35480)">
<rect x="243" y="174.875" width="91" height="4" fill="white" fill-opacity="0.64"/>
</g>
<g filter="url(#filter2_d_1501_35480)">
<rect x="223" y="168" width="130" height="2" fill="url(#paint1_linear_1501_35480)" shape-rendering="crispEdges"/>
</g>
<g filter="url(#filter3_d_1501_35480)">
<rect x="223" y="175" width="130" height="2" fill="url(#paint2_linear_1501_35480)" shape-rendering="crispEdges"/>
</g>
<g filter="url(#filter4_d_1501_35480)">
<rect x="223" y="182" width="130" height="2" fill="url(#paint3_linear_1501_35480)" shape-rendering="crispEdges"/>
</g>
<g filter="url(#filter5_b_1501_35480)">
<rect x="49" y="84.875" width="28" height="28" rx="14" fill="#27272A"/>
<g clip-path="url(#clip1_1501_35480)">
<path fill-rule="evenodd" clip-rule="evenodd" d="M58.7839 92.75C58.3187 92.7497 57.8693 92.9204 57.5212 93.2296C57.1731 93.5388 56.9506 93.965 56.896 94.4271C56.8414 94.8891 56.9585 95.3548 57.2251 95.7355C57.4917 96.1161 57.8891 96.3852 58.3418 96.4915C58.3398 96.5081 58.3388 96.5249 58.3387 96.5417L58.3293 101.208C58.3294 101.225 58.3303 101.242 58.3321 101.258C57.88 101.366 57.4827 101.635 57.2155 102.016C56.9483 102.396 56.8298 102.861 56.8824 103.322C56.9351 103.784 57.1553 104.209 57.5012 104.519C57.8471 104.828 58.2947 104.999 58.7592 105C59.2243 105 59.6737 104.83 60.0218 104.52C60.3699 104.211 60.5925 103.785 60.6471 103.323C60.7017 102.861 60.5845 102.395 60.3179 102.015C60.0514 101.634 59.6539 101.365 59.2013 101.258C59.2033 101.242 59.2043 101.225 59.2043 101.208L59.2137 96.5417C59.2138 96.5249 59.2128 96.5081 59.2109 96.4915C59.663 96.3842 60.0603 96.1147 60.3275 95.7343C60.5948 95.3539 60.7133 94.8889 60.6606 94.4276C60.608 93.9663 60.3878 93.5406 60.0419 93.2314C59.696 92.9222 59.2483 92.7509 58.7839 92.75V92.75ZM57.7592 94.6458C57.7595 94.5118 57.7862 94.379 57.8377 94.2552C57.8893 94.1313 57.9647 94.0188 58.0597 93.924C58.1547 93.8292 58.2674 93.754 58.3913 93.7027C58.5153 93.6514 58.6481 93.625 58.7821 93.625C58.9162 93.625 59.0489 93.6514 59.1726 93.7027C59.2964 93.754 59.4088 93.8292 59.5034 93.924C59.598 94.0188 59.6729 94.1313 59.724 94.2552C59.775 94.379 59.8012 94.5118 59.8009 94.6458C59.8004 94.9166 59.6923 95.1762 59.5004 95.3677C59.3086 95.5591 59.0487 95.6667 58.778 95.6667C58.5073 95.6667 58.2478 95.5591 58.0568 95.3677C57.8657 95.1762 57.7587 94.9166 57.7592 94.6458ZM57.7422 103.104C57.7424 102.97 57.7691 102.837 57.8206 102.713C57.8722 102.59 57.9476 102.477 58.0426 102.382C58.1376 102.288 58.2503 102.212 58.3742 102.161C58.4982 102.11 58.631 102.083 58.765 102.083C58.8991 102.083 59.0318 102.11 59.1555 102.161C59.2793 102.212 59.3917 102.288 59.4863 102.382C59.5809 102.477 59.6558 102.59 59.7069 102.713C59.758 102.837 59.7841 102.97 59.7838 103.104C59.7833 103.375 59.6752 103.635 59.4834 103.826C59.2915 104.017 59.0317 104.125 58.7609 104.125C58.4902 104.125 58.2307 104.017 58.0397 103.826C57.8486 103.635 57.7416 103.375 57.7422 103.104V103.104ZM65.3255 103.104C65.3265 102.601 65.5272 102.119 65.8835 101.764C66.2397 101.408 66.7223 101.208 67.2251 101.208C67.728 101.208 68.2098 101.408 68.5646 101.764C68.9194 102.119 69.1182 102.601 69.1171 103.104C69.1161 103.607 68.9154 104.089 68.5592 104.445C68.2029 104.8 67.7203 105 67.2175 105C66.7147 105 66.2329 104.8 65.8781 104.445C65.5232 104.089 65.3245 103.607 65.3255 103.104ZM67.2234 102.083C66.9526 102.083 66.6928 102.191 66.5009 102.382C66.3091 102.574 66.201 102.833 66.2005 103.104C66.1999 103.375 66.307 103.635 66.498 103.826C66.6891 104.017 66.9485 104.125 67.2193 104.125C67.49 104.125 67.7499 104.017 67.9417 103.826C68.1335 103.635 68.2416 103.375 68.2421 103.104C68.2427 102.833 68.1357 102.574 67.9446 102.382C67.7536 102.191 67.4941 102.083 67.2234 102.083V102.083Z" fill="white"/>
<path d="M67.2394 95.3747C67.5101 95.3747 67.77 95.2671 67.9618 95.0757C68.1536 94.8842 68.2617 94.6246 68.2623 94.3538C68.2628 94.0831 68.1558 93.8234 67.9647 93.632C67.7737 93.4406 67.5142 93.333 67.2435 93.333C66.9727 93.333 66.7129 93.4406 66.521 93.632C66.3292 93.8234 66.2211 94.0831 66.2206 94.3538C66.22 94.6246 66.3271 94.8842 66.5181 95.0757C66.7092 95.2671 66.9686 95.3747 67.2394 95.3747V95.3747ZM68.254 98.4372C68.2535 98.7079 68.1454 98.9676 67.9536 99.159C67.7617 99.3504 67.5019 99.458 67.2311 99.458C66.9604 99.458 66.7009 99.3504 66.5099 99.159C66.3188 98.9676 66.2118 98.7079 66.2123 98.4372C66.2129 98.1664 66.321 97.9068 66.5128 97.7153C66.7046 97.5239 66.9645 97.4163 67.2352 97.4163C67.506 97.4163 67.7654 97.5239 67.9565 97.7153C68.1475 97.9068 68.2546 98.1664 68.254 98.4372V98.4372Z" fill="white"/>
</g>
<rect x="49.5" y="85.375" width="27" height="27" rx="13.5" stroke="#A1A1AA" stroke-opacity="0.2"/>
</g>
<g filter="url(#filter6_b_1501_35480)">
<rect x="464" y="51" width="44" height="44" rx="22" fill="#27272A"/>
<g clip-path="url(#clip2_1501_35480)">
<path fill-rule="evenodd" clip-rule="evenodd" d="M476.497 73C476.502 70.4804 477.508 68.0641 479.293 66.2825C481.079 64.5009 483.497 63.5 486.016 63.5C488.536 63.5 490.95 64.5009 492.728 66.2825C494.506 68.0641 495.502 70.4804 495.497 73C495.492 75.5195 494.486 77.9359 492.701 79.7175C490.916 81.4991 488.498 82.5 485.978 82.5C483.459 82.5 481.044 81.4991 479.266 79.7175C477.488 77.9359 476.492 75.5195 476.497 73V73ZM486.02 62C479.945 62 475.01 66.925 474.997 73C474.985 79.075 479.9 84 485.975 84C492.05 84 496.985 79.075 496.997 73C497.01 66.925 492.095 62 486.02 62ZM485.993 75C486.524 75 487.033 74.7893 487.409 74.4142C487.784 74.0391 487.996 73.5304 487.997 73C487.998 72.4695 487.789 71.9608 487.414 71.5858C487.04 71.2107 486.532 71 486.001 71C485.471 71 484.962 71.2107 484.586 71.5858C484.21 71.9608 483.998 72.4695 483.997 73C483.996 73.5304 484.206 74.0391 484.58 74.4142C484.955 74.7893 485.463 75 485.993 75Z" fill="white"/>
</g>
<rect x="464.5" y="51.5" width="43" height="43" rx="21.5" stroke="#A1A1AA" stroke-opacity="0.2"/>
</g>
<g filter="url(#filter7_b_1501_35480)">
<rect x="266" y="225.875" width="35" height="35" rx="17.5" fill="#27272A" fill-opacity="0.7"/>
<g clip-path="url(#clip3_1501_35480)">
<path fill-rule="evenodd" clip-rule="evenodd" d="M275.979 243.375C275.983 241.381 276.779 239.468 278.192 238.057C279.605 236.647 281.52 235.854 283.515 235.854C285.509 235.854 287.421 236.647 288.828 238.057C290.236 239.468 291.024 241.381 291.02 243.375C291.016 245.37 290.22 247.283 288.807 248.693C287.393 250.104 285.479 250.896 283.484 250.896C281.489 250.896 279.578 250.104 278.171 248.693C276.763 247.283 275.974 245.37 275.979 243.375V243.375ZM283.517 234.667C278.708 234.667 274.801 238.566 274.791 243.375C274.781 248.185 278.672 252.084 283.482 252.084C288.291 252.084 292.198 248.185 292.208 243.375C292.217 238.566 288.326 234.667 283.517 234.667ZM283.496 244.959C283.916 244.959 284.319 244.792 284.617 244.495C284.914 244.198 285.082 243.795 285.083 243.375C285.084 242.955 284.918 242.553 284.621 242.256C284.325 241.959 283.922 241.792 283.503 241.792C283.083 241.792 282.68 241.959 282.382 242.256C282.084 242.553 281.917 242.955 281.916 243.375C281.915 243.795 282.081 244.198 282.377 244.495C282.674 244.792 283.076 244.959 283.496 244.959Z" fill="white"/>
</g>
<rect x="266.5" y="226.375" width="34" height="34" rx="17" stroke="#A1A1AA" stroke-opacity="0.2"/>
</g>
<g filter="url(#filter8_b_1501_35480)">
<rect x="52" y="237.875" width="44" height="44" rx="22" fill="#27272A" fill-opacity="0.7"/>
<g clip-path="url(#clip4_1501_35480)">
<path d="M79.2822 257.155C79.4149 257.013 79.4875 256.825 79.4844 256.63C79.4814 256.436 79.403 256.251 79.2659 256.113C79.1288 255.976 78.9435 255.897 78.7493 255.894C78.555 255.89 78.3668 255.962 78.2243 256.095L72.2423 262.065L69.7773 259.595C69.6353 259.462 69.4474 259.39 69.2531 259.394C69.0588 259.397 68.8733 259.476 68.7356 259.613C68.5979 259.751 68.5188 259.936 68.515 260.13C68.5112 260.325 68.5829 260.513 68.7151 260.655L71.7091 263.655C71.8494 263.795 72.0399 263.874 72.2386 263.874C72.4374 263.874 72.6281 263.795 72.7691 263.655L79.2822 257.155V257.155Z" fill="white"/>
<path fill-rule="evenodd" clip-rule="evenodd" d="M74.0195 248.875C67.9445 248.875 63.0096 253.8 62.9973 259.875C62.985 265.95 67.9001 270.875 73.9751 270.875C80.0501 270.875 84.985 265.95 84.9973 259.875C85.0096 253.8 80.0945 248.875 74.0195 248.875ZM64.4973 259.875C64.5024 257.355 65.5082 254.939 67.2934 253.157C69.0786 251.376 71.4969 250.375 74.0165 250.375C76.5361 250.375 78.9504 251.376 80.7284 253.157C82.5064 254.939 83.5024 257.355 83.4973 259.875C83.4922 262.395 82.4864 264.811 80.7013 266.592C78.9161 268.374 76.4977 269.375 73.9781 269.375C71.4586 269.375 69.0442 268.374 67.2662 266.592C65.4882 264.811 64.4922 262.395 64.4973 259.875V259.875Z" fill="white"/>
</g>
<rect x="52.5" y="238.375" width="43" height="43" rx="21.5" stroke="#A1A1AA" stroke-opacity="0.2"/>
</g>
<g filter="url(#filter9_bd_1501_35480)">
<rect x="347.875" y="128.875" width="86.1987" height="86.1987" rx="20.1503" fill="#18181B" shape-rendering="crispEdges"/>
<rect x="347.875" y="128.875" width="86.1987" height="86.1987" rx="20.1503" fill="white" fill-opacity="0.04" shape-rendering="crispEdges"/>
<path d="M390.973 153.021C386.359 153.021 381.895 154.663 378.38 157.653C374.865 160.644 372.529 164.787 371.79 169.342C371.051 173.897 371.957 178.567 374.345 182.515C376.734 186.464 380.449 189.433 384.827 190.893C385.799 191.063 386.163 190.48 386.163 189.97C386.163 189.508 386.139 187.978 386.139 186.35C381.256 187.249 379.993 185.16 379.604 184.067C379.173 183.003 378.489 182.061 377.612 181.321C376.932 180.957 375.96 180.058 377.588 180.034C378.209 180.101 378.806 180.318 379.326 180.664C379.846 181.011 380.275 181.478 380.576 182.026C380.842 182.503 381.199 182.924 381.628 183.263C382.056 183.602 382.548 183.853 383.073 184.002C383.599 184.151 384.149 184.195 384.692 184.131C385.235 184.067 385.759 183.896 386.236 183.629C386.32 182.641 386.761 181.717 387.475 181.03C383.151 180.544 378.633 178.868 378.633 171.434C378.605 169.503 379.318 167.634 380.625 166.211C380.03 164.533 380.1 162.691 380.819 161.061C380.819 161.061 382.446 160.551 386.163 163.053C389.343 162.179 392.7 162.179 395.88 163.053C399.597 160.527 401.225 161.061 401.225 161.061C401.944 162.691 402.013 164.533 401.419 166.211C402.73 167.632 403.443 169.502 403.411 171.434C403.411 178.892 398.868 180.544 394.544 181.03C395.008 181.5 395.365 182.064 395.592 182.685C395.818 183.305 395.908 183.967 395.856 184.625C395.856 187.225 395.832 189.314 395.832 189.97C395.832 190.48 396.196 191.087 397.168 190.893C401.538 189.421 405.243 186.445 407.621 182.494C410 178.544 410.897 173.877 410.153 169.326C409.408 164.776 407.071 160.637 403.558 157.651C400.045 154.664 395.584 153.023 390.973 153.021V153.021Z" fill="white"/>
<rect x="348.435" y="129.435" width="85.0792" height="85.0792" rx="19.5906" stroke="url(#paint4_linear_1501_35480)" stroke-opacity="0.3" stroke-width="1.11946" shape-rendering="crispEdges"/>
</g>
<g filter="url(#filter10_b_1501_35480)">
<rect x="164" y="54.875" width="44" height="44" rx="22" fill="#27272A"/>
<path fill-rule="evenodd" clip-rule="evenodd" d="M178.767 67.875C178.537 67.875 178.309 67.9203 178.097 68.0082C177.884 68.0962 177.691 68.2251 177.528 68.3876C177.365 68.5501 177.236 68.743 177.148 68.9553C177.059 69.1676 177.013 69.3952 177.013 69.625C177.013 69.8548 177.057 70.0824 177.145 70.2947C177.232 70.507 177.361 70.6999 177.523 70.8624C177.685 71.0249 177.878 71.1538 178.09 71.2418C178.302 71.3297 178.53 71.375 178.759 71.375C179.224 71.375 179.669 71.1906 179.998 70.8624C180.327 70.5342 180.512 70.0891 180.513 69.625C180.514 69.1609 180.33 68.7157 180.003 68.3876C179.675 68.0594 179.231 67.875 178.767 67.875ZM175.513 69.625C175.515 68.763 175.859 67.9364 176.47 67.3269C177.08 66.7174 177.908 66.375 178.77 66.375C179.631 66.375 180.457 66.7174 181.066 67.3269C181.674 67.9364 182.015 68.763 182.013 69.625C182.011 70.4869 181.667 71.3136 181.056 71.9231C180.446 72.5326 179.618 72.875 178.756 72.875C177.894 72.875 177.068 72.5326 176.46 71.9231C175.852 71.3136 175.511 70.4869 175.513 69.625V69.625ZM178.737 82.375C178.273 82.375 177.828 82.5593 177.499 82.8875C177.17 83.2157 176.985 83.6608 176.984 84.125C176.983 84.5891 177.166 85.0342 177.494 85.3624C177.821 85.6906 178.266 85.875 178.73 85.875C179.194 85.875 179.64 85.6906 179.969 85.3624C180.297 85.0342 180.483 84.5891 180.484 84.125C180.485 83.6608 180.301 83.2157 179.974 82.8875C179.646 82.5593 179.201 82.375 178.737 82.375V82.375ZM175.484 84.125C175.485 83.263 175.829 82.4364 176.44 81.8269C177.051 81.2174 177.878 80.875 178.74 80.875C179.602 80.875 180.428 81.2174 181.036 81.8269C181.645 82.4364 181.985 83.263 181.984 84.125C181.982 84.9869 181.638 85.8136 181.027 86.4231C180.416 87.0325 179.589 87.375 178.727 87.375C177.865 87.375 177.039 87.0325 176.431 86.4231C175.823 85.8136 175.482 84.9869 175.484 84.125V84.125ZM193.237 82.375C192.773 82.375 192.328 82.5593 191.999 82.8875C191.67 83.2157 191.485 83.6608 191.484 84.125C191.483 84.5891 191.666 85.0342 191.994 85.3624C192.321 85.6906 192.766 85.875 193.23 85.875C193.694 85.875 194.14 85.6906 194.469 85.3624C194.797 85.0342 194.983 84.5891 194.984 84.125C194.985 83.6608 194.801 83.2157 194.474 82.8875C194.146 82.5593 193.701 82.375 193.237 82.375V82.375ZM189.984 84.125C189.985 83.263 190.329 82.4364 190.94 81.8269C191.551 81.2174 192.378 80.875 193.24 80.875C194.102 80.875 194.928 81.2174 195.536 81.8269C196.145 82.4364 196.485 83.263 196.484 84.125C196.482 84.9869 196.138 85.8136 195.527 86.4231C194.916 87.0325 194.089 87.375 193.227 87.375C192.365 87.375 191.539 87.0325 190.931 86.4231C190.323 85.8136 189.982 84.9869 189.984 84.125Z" fill="white"/>
<path fill-rule="evenodd" clip-rule="evenodd" d="M178.758 72.1243C178.957 72.1243 179.147 72.2033 179.288 72.344C179.428 72.4846 179.507 72.6754 179.506 72.8743L179.49 80.8743C179.49 81.0732 179.41 81.264 179.27 81.4046C179.129 81.5453 178.938 81.6243 178.739 81.6243C178.54 81.6243 178.349 81.5453 178.209 81.4046C178.068 81.264 177.99 81.0732 177.99 80.8743L178.006 72.8743C178.007 72.6754 178.086 72.4846 178.227 72.344C178.368 72.2033 178.559 72.1243 178.758 72.1243ZM187.424 66.5943C187.564 66.735 187.643 66.9256 187.642 67.1243C187.642 67.3231 187.563 67.5137 187.422 67.6543L186.199 68.8743H190.264C191.259 68.8743 192.212 69.2694 192.914 69.9727C193.616 70.6759 194.009 71.6298 194.007 72.6243L193.989 81.3743C193.989 81.5732 193.909 81.764 193.768 81.9046C193.628 82.0453 193.437 82.1243 193.238 82.1243C193.039 82.1243 192.848 82.0453 192.708 81.9046C192.567 81.764 192.489 81.5732 192.489 81.3743L192.507 72.6243C192.508 72.0276 192.272 71.4553 191.851 71.0333C191.43 70.6114 190.858 70.3743 190.261 70.3743H186.197L187.415 71.5943C187.551 71.7358 187.626 71.9253 187.624 72.122C187.622 72.3186 187.543 72.5067 187.403 72.6457C187.264 72.7847 187.076 72.8635 186.879 72.8651C186.682 72.8667 186.493 72.791 186.352 72.6543L183.857 70.1543C183.717 70.0137 183.638 69.8231 183.639 69.6243C183.639 69.4256 183.718 69.235 183.859 69.0943L186.364 66.5943C186.505 66.4539 186.696 66.375 186.895 66.375C187.093 66.375 187.284 66.4539 187.424 66.5943V66.5943Z" fill="white"/>
<rect x="164.5" y="55.375" width="43" height="43" rx="21.5" stroke="#A1A1AA" stroke-opacity="0.2"/>
</g>
<g filter="url(#filter11_b_1501_35480)">
<rect x="376" y="280" width="32" height="32" rx="16" fill="#27272A" fill-opacity="0.7"/>
<path fill-rule="evenodd" clip-rule="evenodd" d="M392.349 290.192C391.59 290.138 391.006 290.767 391.006 291.479V292.093C391.006 293.648 389.948 294.301 389.387 294.543C389.29 294.583 389.187 294.609 389.082 294.619C389.065 294.361 388.95 294.119 388.761 293.942C388.572 293.765 388.323 293.667 388.064 293.667H387.189C386.918 293.667 386.658 293.774 386.467 293.966C386.276 294.157 386.168 294.417 386.168 294.687V300.812C386.168 301.377 386.625 301.833 387.189 301.833H388.064C388.317 301.833 388.562 301.739 388.75 301.569C388.938 301.398 389.055 301.164 389.08 300.912C389.569 300.947 390.052 301.084 390.649 301.253L391 301.353C391.854 301.589 392.875 301.833 394.234 301.833C395.511 301.833 396.389 301.714 396.908 301.033C397.154 300.71 397.287 300.301 397.384 299.837C397.47 299.424 397.537 298.921 397.615 298.332L397.644 298.105C397.831 296.713 397.836 295.666 397.514 294.958C397.343 294.582 397.081 294.302 396.724 294.123C396.38 293.951 395.975 293.888 395.536 293.888H394.34L394.373 293.637C394.388 293.532 394.402 293.42 394.417 293.304C394.452 293.022 394.486 292.717 394.486 292.465C394.486 291.739 394.356 291.151 393.949 290.749C393.55 290.356 392.976 290.236 392.349 290.192ZM389.085 300.035C389.702 300.073 390.297 300.243 390.903 300.416L391.235 300.509C392.055 300.737 392.988 300.958 394.234 300.958C395.563 300.958 395.987 300.798 396.212 300.503C396.338 300.338 396.438 300.084 396.527 299.658C396.606 299.279 396.668 298.812 396.748 298.213L396.777 297.989C396.964 296.589 396.925 295.775 396.718 295.32C396.624 295.115 396.499 294.989 396.333 294.906C396.155 294.816 395.901 294.763 395.536 294.763H394.154C393.757 294.763 393.4 294.43 393.447 293.988C393.463 293.846 393.485 293.675 393.509 293.502L393.549 293.194C393.584 292.913 393.611 292.657 393.611 292.465C393.611 291.809 393.486 291.522 393.335 291.372C393.174 291.215 392.883 291.107 392.288 291.064C392.083 291.05 391.881 291.224 391.881 291.479V292.093C391.881 294.164 390.429 295.046 389.734 295.346C389.517 295.439 389.294 295.481 389.085 295.498V300.036V300.035ZM387.189 300.958C387.15 300.958 387.113 300.943 387.086 300.916C387.058 300.888 387.043 300.851 387.043 300.812V294.687C387.043 294.649 387.058 294.612 387.086 294.584C387.113 294.557 387.15 294.542 387.189 294.542H388.064C388.102 294.542 388.14 294.557 388.167 294.584C388.194 294.612 388.21 294.649 388.21 294.687V300.812C388.21 300.851 388.194 300.888 388.167 300.916C388.14 300.943 388.102 300.958 388.064 300.958H387.189Z" fill="white"/>
<rect x="376.5" y="280.5" width="31" height="31" rx="15.5" stroke="#A1A1AA" stroke-opacity="0.2"/>
</g>
<g filter="url(#filter12_bd_1501_35480)">
<rect x="141" y="128.875" width="86.1987" height="86.1987" rx="20.1503" fill="#18181B" shape-rendering="crispEdges"/>
<rect x="141" y="128.875" width="86.1987" height="86.1987" rx="20.1503" fill="white" fill-opacity="0.04" shape-rendering="crispEdges"/>
<g filter="url(#filter13_d_1501_35480)">
<path d="M171.367 159.195C171.013 158.721 170.675 158.342 170.173 158.163C169.607 157.91 168.971 157.894 168.376 158.234C168.153 158.362 168.005 158.48 167.881 158.621C167.189 159.257 166.981 160.281 167.44 161.144L167.442 161.143C167.547 161.371 167.65 161.565 167.776 161.801L173.754 171.29L176.471 175.603L177.521 177.269L181.943 184.574C182.201 184.999 182.572 185.352 183.019 185.598C183.466 185.844 183.973 185.973 184.488 185.973C185.004 185.973 185.511 185.844 185.958 185.598C186.404 185.352 186.775 184.999 187.033 184.574L200.604 162.178C200.862 161.752 200.998 161.269 200.999 160.778C200.999 160.287 200.863 159.804 200.605 159.378C200.348 158.953 199.977 158.599 199.53 158.353C199.083 158.108 198.577 157.978 198.061 157.978H187.867C183.828 157.978 180.85 159.669 178.8 162.966L178.2 163.957L178.049 164.205L180.944 168.236L182.725 165.296C184.086 163.156 185.633 162.377 188.033 162.377L195.147 162.378L184.484 179.973L181.459 174.973L181.462 174.969L181.348 174.79L179.163 171.176L176.397 166.931L173.231 161.906L171.367 159.195Z" fill="white"/>
<path d="M169.545 178.49C169.474 178.612 169.389 178.783 169.345 178.911C169.126 179.588 169.275 180.322 169.721 180.868C169.743 180.899 169.766 180.926 169.791 180.949C169.949 181.125 170.14 181.278 170.362 181.4C171.418 181.982 172.761 181.631 173.37 180.617C173.495 180.48 173.607 180.332 173.703 180.174L175.087 177.888L172.295 173.697L172.132 173.965L171.808 174.5L171.16 175.569L169.545 178.49Z" fill="white"/>
</g>
<rect x="141.56" y="129.435" width="85.0792" height="85.0792" rx="19.5906" stroke="url(#paint5_linear_1501_35480)" stroke-opacity="0.4" stroke-width="1.11946" shape-rendering="crispEdges"/>
</g>
<g filter="url(#filter14_b_1501_35480)">
<rect x="475" y="249.875" width="44" height="44" rx="22" fill="#27272A" fill-opacity="0.7"/>
<path fill-rule="evenodd" clip-rule="evenodd" d="M489.767 262.875C489.537 262.875 489.309 262.92 489.097 263.008C488.884 263.096 488.691 263.225 488.528 263.388C488.365 263.55 488.236 263.743 488.148 263.955C488.059 264.168 488.013 264.395 488.013 264.625C488.013 264.855 488.057 265.082 488.145 265.295C488.232 265.507 488.361 265.7 488.523 265.862C488.685 266.025 488.878 266.154 489.09 266.242C489.302 266.33 489.53 266.375 489.759 266.375C490.224 266.375 490.669 266.191 490.998 265.862C491.327 265.534 491.512 265.089 491.513 264.625C491.514 264.161 491.33 263.716 491.003 263.388C490.675 263.059 490.231 262.875 489.767 262.875ZM486.513 264.625C486.515 263.763 486.859 262.936 487.47 262.327C488.08 261.717 488.908 261.375 489.77 261.375C490.631 261.375 491.457 261.717 492.066 262.327C492.674 262.936 493.015 263.763 493.013 264.625C493.011 265.487 492.667 266.314 492.056 266.923C491.446 267.533 490.618 267.875 489.756 267.875C488.894 267.875 488.068 267.533 487.46 266.923C486.852 266.314 486.511 265.487 486.513 264.625V264.625ZM489.737 277.375C489.273 277.375 488.828 277.559 488.499 277.888C488.17 278.216 487.985 278.661 487.984 279.125C487.983 279.589 488.166 280.034 488.494 280.362C488.821 280.691 489.266 280.875 489.73 280.875C490.194 280.875 490.64 280.691 490.969 280.362C491.297 280.034 491.483 279.589 491.484 279.125C491.485 278.661 491.301 278.216 490.974 277.888C490.646 277.559 490.201 277.375 489.737 277.375V277.375ZM486.484 279.125C486.485 278.263 486.829 277.436 487.44 276.827C488.051 276.217 488.878 275.875 489.74 275.875C490.602 275.875 491.428 276.217 492.036 276.827C492.645 277.436 492.985 278.263 492.984 279.125C492.982 279.987 492.638 280.814 492.027 281.423C491.416 282.033 490.589 282.375 489.727 282.375C488.865 282.375 488.039 282.033 487.431 281.423C486.823 280.814 486.482 279.987 486.484 279.125V279.125ZM504.237 277.375C503.773 277.375 503.328 277.559 502.999 277.888C502.67 278.216 502.485 278.661 502.484 279.125C502.483 279.589 502.666 280.034 502.994 280.362C503.321 280.691 503.766 280.875 504.23 280.875C504.694 280.875 505.14 280.691 505.469 280.362C505.797 280.034 505.983 279.589 505.984 279.125C505.985 278.661 505.801 278.216 505.474 277.888C505.146 277.559 504.701 277.375 504.237 277.375V277.375ZM500.984 279.125C500.985 278.263 501.329 277.436 501.94 276.827C502.551 276.217 503.378 275.875 504.24 275.875C505.102 275.875 505.928 276.217 506.536 276.827C507.145 277.436 507.485 278.263 507.484 279.125C507.482 279.987 507.138 280.814 506.527 281.423C505.916 282.033 505.089 282.375 504.227 282.375C503.365 282.375 502.539 282.033 501.931 281.423C501.323 280.814 500.982 279.987 500.984 279.125Z" fill="white"/>
<path fill-rule="evenodd" clip-rule="evenodd" d="M489.758 267.124C489.957 267.124 490.147 267.203 490.288 267.344C490.428 267.485 490.507 267.675 490.506 267.874L490.49 275.874C490.49 276.073 490.41 276.264 490.27 276.405C490.129 276.545 489.938 276.624 489.739 276.624C489.54 276.624 489.349 276.545 489.209 276.405C489.068 276.264 488.99 276.073 488.99 275.874L489.006 267.874C489.007 267.675 489.086 267.485 489.227 267.344C489.368 267.203 489.559 267.124 489.758 267.124ZM498.424 261.594C498.564 261.735 498.643 261.926 498.642 262.124C498.642 262.323 498.563 262.514 498.422 262.654L497.199 263.874H501.264C502.259 263.874 503.212 264.269 503.914 264.973C504.616 265.676 505.009 266.63 505.007 267.624L504.989 276.374C504.989 276.573 504.909 276.764 504.768 276.905C504.628 277.045 504.437 277.124 504.238 277.124C504.039 277.124 503.848 277.045 503.708 276.905C503.567 276.764 503.489 276.573 503.489 276.374L503.507 267.624C503.508 267.028 503.272 266.455 502.851 266.033C502.43 265.611 501.858 265.374 501.261 265.374H497.197L498.415 266.594C498.551 266.736 498.626 266.925 498.624 267.122C498.622 267.319 498.543 267.507 498.403 267.646C498.264 267.785 498.076 267.863 497.879 267.865C497.682 267.867 497.493 267.791 497.352 267.654L494.857 265.154C494.717 265.014 494.638 264.823 494.639 264.624C494.639 264.426 494.718 264.235 494.859 264.094L497.364 261.594C497.505 261.454 497.696 261.375 497.895 261.375C498.093 261.375 498.284 261.454 498.424 261.594V261.594Z" fill="white"/>
<rect x="475.5" y="250.375" width="43" height="43" rx="21.5" stroke="#A1A1AA" stroke-opacity="0.2"/>
</g>
</g>
<defs>
<filter id="filter0_f_1501_35480" x="55" y="-5" width="486" height="349" filterUnits="userSpaceOnUse" color-interpolation-filters="sRGB">
<feFlood flood-opacity="0" result="BackgroundImageFix"/>
<feBlend mode="normal" in="SourceGraphic" in2="BackgroundImageFix" result="shape"/>
<feGaussianBlur stdDeviation="59" result="effect1_foregroundBlur_1501_35480"/>
</filter>
<filter id="filter1_f_1501_35480" x="200" y="131.875" width="177" height="90" filterUnits="userSpaceOnUse" color-interpolation-filters="sRGB">
<feFlood flood-opacity="0" result="BackgroundImageFix"/>
<feBlend mode="normal" in="SourceGraphic" in2="BackgroundImageFix" result="shape"/>
<feGaussianBlur stdDeviation="21.5" result="effect1_foregroundBlur_1501_35480"/>
</filter>
<filter id="filter2_d_1501_35480" x="211" y="156" width="154" height="26" filterUnits="userSpaceOnUse" color-interpolation-filters="sRGB">
<feFlood flood-opacity="0" result="BackgroundImageFix"/>
<feColorMatrix in="SourceAlpha" type="matrix" values="0 0 0 0 0 0 0 0 0 0 0 0 0 0 0 0 0 0 127 0" result="hardAlpha"/>
<feOffset/>
<feGaussianBlur stdDeviation="6"/>
<feComposite in2="hardAlpha" operator="out"/>
<feColorMatrix type="matrix" values="0 0 0 0 0 0 0 0 0 0 0 0 0 0 0 0 0 0 1 0"/>
<feBlend mode="normal" in2="BackgroundImageFix" result="effect1_dropShadow_1501_35480"/>
<feBlend mode="normal" in="SourceGraphic" in2="effect1_dropShadow_1501_35480" result="shape"/>
</filter>
<filter id="filter3_d_1501_35480" x="211" y="163" width="154" height="26" filterUnits="userSpaceOnUse" color-interpolation-filters="sRGB">
<feFlood flood-opacity="0" result="BackgroundImageFix"/>
<feColorMatrix in="SourceAlpha" type="matrix" values="0 0 0 0 0 0 0 0 0 0 0 0 0 0 0 0 0 0 127 0" result="hardAlpha"/>
<feOffset/>
<feGaussianBlur stdDeviation="6"/>
<feComposite in2="hardAlpha" operator="out"/>
<feColorMatrix type="matrix" values="0 0 0 0 0 0 0 0 0 0 0 0 0 0 0 0 0 0 1 0"/>
<feBlend mode="normal" in2="BackgroundImageFix" result="effect1_dropShadow_1501_35480"/>
<feBlend mode="normal" in="SourceGraphic" in2="effect1_dropShadow_1501_35480" result="shape"/>
</filter>
<filter id="filter4_d_1501_35480" x="211" y="170" width="154" height="26" filterUnits="userSpaceOnUse" color-interpolation-filters="sRGB">
<feFlood flood-opacity="0" result="BackgroundImageFix"/>
<feColorMatrix in="SourceAlpha" type="matrix" values="0 0 0 0 0 0 0 0 0 0 0 0 0 0 0 0 0 0 127 0" result="hardAlpha"/>
<feOffset/>
<feGaussianBlur stdDeviation="6"/>
<feComposite in2="hardAlpha" operator="out"/>
<feColorMatrix type="matrix" values="0 0 0 0 0 0 0 0 0 0 0 0 0 0 0 0 0 0 1 0"/>
<feBlend mode="normal" in2="BackgroundImageFix" result="effect1_dropShadow_1501_35480"/>
<feBlend mode="normal" in="SourceGraphic" in2="effect1_dropShadow_1501_35480" result="shape"/>
</filter>
<filter id="filter5_b_1501_35480" x="37" y="72.875" width="52" height="52" filterUnits="userSpaceOnUse" color-interpolation-filters="sRGB">
<feFlood flood-opacity="0" result="BackgroundImageFix"/>
<feGaussianBlur in="BackgroundImageFix" stdDeviation="6"/>
<feComposite in2="SourceAlpha" operator="in" result="effect1_backgroundBlur_1501_35480"/>
<feBlend mode="normal" in="SourceGraphic" in2="effect1_backgroundBlur_1501_35480" result="shape"/>
</filter>
<filter id="filter6_b_1501_35480" x="452" y="39" width="68" height="68" filterUnits="userSpaceOnUse" color-interpolation-filters="sRGB">
<feFlood flood-opacity="0" result="BackgroundImageFix"/>
<feGaussianBlur in="BackgroundImageFix" stdDeviation="6"/>
<feComposite in2="SourceAlpha" operator="in" result="effect1_backgroundBlur_1501_35480"/>
<feBlend mode="normal" in="SourceGraphic" in2="effect1_backgroundBlur_1501_35480" result="shape"/>
</filter>
<filter id="filter7_b_1501_35480" x="254" y="213.875" width="59" height="59" filterUnits="userSpaceOnUse" color-interpolation-filters="sRGB">
<feFlood flood-opacity="0" result="BackgroundImageFix"/>
<feGaussianBlur in="BackgroundImageFix" stdDeviation="6"/>
<feComposite in2="SourceAlpha" operator="in" result="effect1_backgroundBlur_1501_35480"/>
<feBlend mode="normal" in="SourceGraphic" in2="effect1_backgroundBlur_1501_35480" result="shape"/>
</filter>
<filter id="filter8_b_1501_35480" x="40" y="225.875" width="68" height="68" filterUnits="userSpaceOnUse" color-interpolation-filters="sRGB">
<feFlood flood-opacity="0" result="BackgroundImageFix"/>
<feGaussianBlur in="BackgroundImageFix" stdDeviation="6"/>
<feComposite in2="SourceAlpha" operator="in" result="effect1_backgroundBlur_1501_35480"/>
<feBlend mode="normal" in="SourceGraphic" in2="effect1_backgroundBlur_1501_35480" result="shape"/>
</filter>
<filter id="filter9_bd_1501_35480" x="303.875" y="84.875" width="174.199" height="174.198" filterUnits="userSpaceOnUse" color-interpolation-filters="sRGB">
<feFlood flood-opacity="0" result="BackgroundImageFix"/>
<feGaussianBlur in="BackgroundImageFix" stdDeviation="0.585059"/>
<feComposite in2="SourceAlpha" operator="in" result="effect1_backgroundBlur_1501_35480"/>
<feColorMatrix in="SourceAlpha" type="matrix" values="0 0 0 0 0 0 0 0 0 0 0 0 0 0 0 0 0 0 127 0" result="hardAlpha"/>
<feOffset/>
<feGaussianBlur stdDeviation="22"/>
<feComposite in2="hardAlpha" operator="out"/>
<feColorMatrix type="matrix" values="0 0 0 0 1 0 0 0 0 1 0 0 0 0 1 0 0 0 0.25 0"/>
<feBlend mode="normal" in2="effect1_backgroundBlur_1501_35480" result="effect2_dropShadow_1501_35480"/>
<feBlend mode="normal" in="SourceGraphic" in2="effect2_dropShadow_1501_35480" result="shape"/>
</filter>
<filter id="filter10_b_1501_35480" x="152" y="42.875" width="68" height="68" filterUnits="userSpaceOnUse" color-interpolation-filters="sRGB">
<feFlood flood-opacity="0" result="BackgroundImageFix"/>
<feGaussianBlur in="BackgroundImageFix" stdDeviation="6"/>
<feComposite in2="SourceAlpha" operator="in" result="effect1_backgroundBlur_1501_35480"/>
<feBlend mode="normal" in="SourceGraphic" in2="effect1_backgroundBlur_1501_35480" result="shape"/>
</filter>
<filter id="filter11_b_1501_35480" x="364" y="268" width="56" height="56" filterUnits="userSpaceOnUse" color-interpolation-filters="sRGB">
<feFlood flood-opacity="0" result="BackgroundImageFix"/>
<feGaussianBlur in="BackgroundImageFix" stdDeviation="6"/>
<feComposite in2="SourceAlpha" operator="in" result="effect1_backgroundBlur_1501_35480"/>
<feBlend mode="normal" in="SourceGraphic" in2="effect1_backgroundBlur_1501_35480" result="shape"/>
</filter>
<filter id="filter12_bd_1501_35480" x="97" y="84.875" width="174.199" height="174.198" filterUnits="userSpaceOnUse" color-interpolation-filters="sRGB">
<feFlood flood-opacity="0" result="BackgroundImageFix"/>
<feGaussianBlur in="BackgroundImageFix" stdDeviation="0.585059"/>
<feComposite in2="SourceAlpha" operator="in" result="effect1_backgroundBlur_1501_35480"/>
<feColorMatrix in="SourceAlpha" type="matrix" values="0 0 0 0 0 0 0 0 0 0 0 0 0 0 0 0 0 0 127 0" result="hardAlpha"/>
<feOffset/>
<feGaussianBlur stdDeviation="22"/>
<feComposite in2="hardAlpha" operator="out"/>
<feColorMatrix type="matrix" values="0 0 0 0 1 0 0 0 0 1 0 0 0 0 1 0 0 0 0.25 0"/>
<feBlend mode="normal" in2="effect1_backgroundBlur_1501_35480" result="effect2_dropShadow_1501_35480"/>
<feBlend mode="normal" in="SourceGraphic" in2="effect2_dropShadow_1501_35480" result="shape"/>
</filter>
<filter id="filter13_d_1501_35480" x="144.234" y="132.111" width="79.7278" height="79.7278" filterUnits="userSpaceOnUse" color-interpolation-filters="sRGB">
<feFlood flood-opacity="0" result="BackgroundImageFix"/>
<feColorMatrix in="SourceAlpha" type="matrix" values="0 0 0 0 0 0 0 0 0 0 0 0 0 0 0 0 0 0 127 0" result="hardAlpha"/>
<feOffset/>
<feGaussianBlur stdDeviation="7.83624"/>
<feComposite in2="hardAlpha" operator="out"/>
<feColorMatrix type="matrix" values="0 0 0 0 1 0 0 0 0 1 0 0 0 0 1 0 0 0 0.16 0"/>
<feBlend mode="normal" in2="BackgroundImageFix" result="effect1_dropShadow_1501_35480"/>
<feBlend mode="normal" in="SourceGraphic" in2="effect1_dropShadow_1501_35480" result="shape"/>
</filter>
<filter id="filter14_b_1501_35480" x="463" y="237.875" width="68" height="68" filterUnits="userSpaceOnUse" color-interpolation-filters="sRGB">
<feFlood flood-opacity="0" result="BackgroundImageFix"/>
<feGaussianBlur in="BackgroundImageFix" stdDeviation="6"/>
<feComposite in2="SourceAlpha" operator="in" result="effect1_backgroundBlur_1501_35480"/>
<feBlend mode="normal" in="SourceGraphic" in2="effect1_backgroundBlur_1501_35480" result="shape"/>
</filter>
<linearGradient id="paint0_linear_1501_35480" x1="177.63" y1="113" x2="427.36" y2="127.467" gradientUnits="userSpaceOnUse">
<stop stop-color="#C9DAFE"/>
<stop offset="0.234375" stop-color="#1A62FF"/>
<stop offset="0.475729" stop-color="#E879F9"/>
<stop offset="0.816708" stop-color="#F43F5E"/>
<stop offset="1" stop-color="#FEC3CD"/>
</linearGradient>
<linearGradient id="paint1_linear_1501_35480" x1="347" y1="168" x2="226" y2="168" gradientUnits="userSpaceOnUse">
<stop stop-color="white" stop-opacity="0"/>
<stop offset="0.510417" stop-color="white"/>
<stop offset="1" stop-color="white" stop-opacity="0"/>
</linearGradient>
<linearGradient id="paint2_linear_1501_35480" x1="347" y1="175" x2="226" y2="175" gradientUnits="userSpaceOnUse">
<stop stop-color="white" stop-opacity="0"/>
<stop offset="0.510417" stop-color="white"/>
<stop offset="1" stop-color="white" stop-opacity="0"/>
</linearGradient>
<linearGradient id="paint3_linear_1501_35480" x1="347" y1="182" x2="226" y2="182" gradientUnits="userSpaceOnUse">
<stop stop-color="white" stop-opacity="0"/>
<stop offset="0.510417" stop-color="white"/>
<stop offset="1" stop-color="white" stop-opacity="0"/>
</linearGradient>
<linearGradient id="paint4_linear_1501_35480" x1="419.893" y1="133.046" x2="372.344" y2="209.791" gradientUnits="userSpaceOnUse">
<stop stop-color="white"/>
<stop offset="1" stop-color="#393940" stop-opacity="0"/>
</linearGradient>
<linearGradient id="paint5_linear_1501_35480" x1="148.508" y1="133.324" x2="227.199" y2="215.074" gradientUnits="userSpaceOnUse">
<stop stop-color="white"/>
<stop offset="1" stop-color="#393940" stop-opacity="0"/>
</linearGradient>
<clipPath id="clip0_1501_35480">
<rect y="0.875" width="576" height="342" rx="12" fill="white"/>
</clipPath>
<clipPath id="clip1_1501_35480">
<rect width="14" height="14" fill="white" transform="matrix(1 0 -0.00202009 0.999998 56.0156 91.875)"/>
</clipPath>
<clipPath id="clip2_1501_35480">
<rect width="24" height="24" fill="white" transform="matrix(1 0 -0.00202009 0.999998 474.023 61)"/>
</clipPath>
<clipPath id="clip3_1501_35480">
<rect width="19" height="19" fill="white" transform="matrix(1 0 -0.00202009 0.999998 274.02 233.875)"/>
</clipPath>
<clipPath id="clip4_1501_35480">
<rect width="24" height="24" fill="white" transform="matrix(1 0 -0.00202009 0.999998 62.0234 247.875)"/>
</clipPath>
</defs>
</svg>
